<mxfile host="app.diagrams.net" agent="Mozilla/5.0 (Windows NT 10.0; Win64; x64) AppleWebKit/537.36 (KHTML, like Gecko) Chrome/138.0.0.0 Safari/537.36 Edg/138.0.0.0" version="27.2.0">
  <diagram name="PÃ¡gina-1" id="5TsEcFWZ8g4nEr2k1d9O">
    <mxGraphModel grid="1" page="1" gridSize="10" guides="1" tooltips="1" connect="1" arrows="1" fold="1" pageScale="1" pageWidth="1169" pageHeight="827" math="0" shadow="0">
      <root>
        <mxCell id="0" />
        <mxCell id="1" parent="0" />
        <mxCell id="6-Q5m6dXEcSu-ddnl3AY-17" style="edgeStyle=orthogonalEdgeStyle;rounded=0;orthogonalLoop=1;jettySize=auto;html=1;fontSize=10;endArrow=none;startFill=0;" edge="1" parent="1" source="6-Q5m6dXEcSu-ddnl3AY-1" target="6-Q5m6dXEcSu-ddnl3AY-16">
          <mxGeometry relative="1" as="geometry" />
        </mxCell>
        <mxCell id="bO-nzLQuyfonReFlk6xu-2" style="rounded=0;orthogonalLoop=1;jettySize=auto;html=1;endArrow=none;startFill=0;fontSize=10;" edge="1" parent="1" source="6-Q5m6dXEcSu-ddnl3AY-1" target="6-Q5m6dXEcSu-ddnl3AY-37">
          <mxGeometry relative="1" as="geometry" />
        </mxCell>
        <mxCell id="bO-nzLQuyfonReFlk6xu-3" style="rounded=0;orthogonalLoop=1;jettySize=auto;html=1;endArrow=none;startFill=0;fontSize=10;" edge="1" parent="1" source="6-Q5m6dXEcSu-ddnl3AY-1" target="6-Q5m6dXEcSu-ddnl3AY-39">
          <mxGeometry relative="1" as="geometry" />
        </mxCell>
        <mxCell id="bO-nzLQuyfonReFlk6xu-4" style="rounded=0;orthogonalLoop=1;jettySize=auto;html=1;endArrow=none;startFill=0;fontSize=10;" edge="1" parent="1" source="6-Q5m6dXEcSu-ddnl3AY-1" target="6-Q5m6dXEcSu-ddnl3AY-38">
          <mxGeometry relative="1" as="geometry" />
        </mxCell>
        <mxCell id="bO-nzLQuyfonReFlk6xu-5" style="rounded=0;orthogonalLoop=1;jettySize=auto;html=1;endArrow=none;startFill=0;fontSize=10;" edge="1" parent="1" source="6-Q5m6dXEcSu-ddnl3AY-1" target="6-Q5m6dXEcSu-ddnl3AY-40">
          <mxGeometry relative="1" as="geometry" />
        </mxCell>
        <mxCell id="bO-nzLQuyfonReFlk6xu-6" style="rounded=0;orthogonalLoop=1;jettySize=auto;html=1;endArrow=none;startFill=0;fontSize=10;" edge="1" parent="1" source="6-Q5m6dXEcSu-ddnl3AY-1" target="UprzVMVuc7IPOBolAGJP-108">
          <mxGeometry relative="1" as="geometry">
            <mxPoint x="400.2821123943854" y="162.75291930858043" as="targetPoint" />
          </mxGeometry>
        </mxCell>
        <mxCell id="6-Q5m6dXEcSu-ddnl3AY-1" value="Usuario" style="rounded=1;whiteSpace=wrap;html=1;fontSize=10;" vertex="1" parent="1">
          <mxGeometry x="280" y="135" width="80" height="40" as="geometry" />
        </mxCell>
        <mxCell id="6-Q5m6dXEcSu-ddnl3AY-23" value="" style="rounded=0;orthogonalLoop=1;jettySize=auto;html=1;fontSize=10;endArrow=none;startFill=0;edgeStyle=orthogonalEdgeStyle;" edge="1" parent="1" source="6-Q5m6dXEcSu-ddnl3AY-8" target="6-Q5m6dXEcSu-ddnl3AY-19">
          <mxGeometry relative="1" as="geometry" />
        </mxCell>
        <mxCell id="bO-nzLQuyfonReFlk6xu-7" style="rounded=0;orthogonalLoop=1;jettySize=auto;html=1;endArrow=none;startFill=0;fontSize=10;" edge="1" parent="1" source="6-Q5m6dXEcSu-ddnl3AY-8" target="6-Q5m6dXEcSu-ddnl3AY-42">
          <mxGeometry relative="1" as="geometry" />
        </mxCell>
        <mxCell id="bO-nzLQuyfonReFlk6xu-8" style="rounded=0;orthogonalLoop=1;jettySize=auto;html=1;endArrow=none;startFill=0;fontSize=10;" edge="1" parent="1" source="6-Q5m6dXEcSu-ddnl3AY-8" target="6-Q5m6dXEcSu-ddnl3AY-43">
          <mxGeometry relative="1" as="geometry" />
        </mxCell>
        <mxCell id="bO-nzLQuyfonReFlk6xu-9" style="rounded=0;orthogonalLoop=1;jettySize=auto;html=1;endArrow=none;startFill=0;fontSize=10;" edge="1" parent="1" source="6-Q5m6dXEcSu-ddnl3AY-8" target="6-Q5m6dXEcSu-ddnl3AY-45">
          <mxGeometry relative="1" as="geometry" />
        </mxCell>
        <mxCell id="bO-nzLQuyfonReFlk6xu-10" style="rounded=0;orthogonalLoop=1;jettySize=auto;html=1;endArrow=none;startFill=0;fontSize=10;" edge="1" parent="1" source="6-Q5m6dXEcSu-ddnl3AY-8" target="6-Q5m6dXEcSu-ddnl3AY-44">
          <mxGeometry relative="1" as="geometry" />
        </mxCell>
        <mxCell id="UprzVMVuc7IPOBolAGJP-90" style="edgeStyle=orthogonalEdgeStyle;rounded=0;orthogonalLoop=1;jettySize=auto;html=1;endArrow=none;startFill=0;fontSize=10;" edge="1" parent="1" source="6-Q5m6dXEcSu-ddnl3AY-8" target="UprzVMVuc7IPOBolAGJP-68">
          <mxGeometry relative="1" as="geometry" />
        </mxCell>
        <mxCell id="6-Q5m6dXEcSu-ddnl3AY-8" value="Proyecto" style="rounded=1;whiteSpace=wrap;html=1;fontSize=10;" vertex="1" parent="1">
          <mxGeometry x="280" y="295" width="80" height="40" as="geometry" />
        </mxCell>
        <mxCell id="MPB-fDKl9nhUMYI1UaOo-155" style="rounded=0;orthogonalLoop=1;jettySize=auto;html=1;endArrow=none;endFill=0;" edge="1" parent="1" source="6-Q5m6dXEcSu-ddnl3AY-9" target="MPB-fDKl9nhUMYI1UaOo-148">
          <mxGeometry relative="1" as="geometry" />
        </mxCell>
        <mxCell id="MPB-fDKl9nhUMYI1UaOo-156" style="rounded=0;orthogonalLoop=1;jettySize=auto;html=1;endArrow=none;endFill=0;" edge="1" parent="1" source="6-Q5m6dXEcSu-ddnl3AY-9" target="MPB-fDKl9nhUMYI1UaOo-149">
          <mxGeometry relative="1" as="geometry" />
        </mxCell>
        <mxCell id="MPB-fDKl9nhUMYI1UaOo-157" style="rounded=0;orthogonalLoop=1;jettySize=auto;html=1;endArrow=none;endFill=0;" edge="1" parent="1" source="6-Q5m6dXEcSu-ddnl3AY-9" target="MPB-fDKl9nhUMYI1UaOo-150">
          <mxGeometry relative="1" as="geometry" />
        </mxCell>
        <mxCell id="MPB-fDKl9nhUMYI1UaOo-158" style="rounded=0;orthogonalLoop=1;jettySize=auto;html=1;endArrow=none;endFill=0;" edge="1" parent="1" source="6-Q5m6dXEcSu-ddnl3AY-9" target="MPB-fDKl9nhUMYI1UaOo-152">
          <mxGeometry relative="1" as="geometry" />
        </mxCell>
        <mxCell id="MPB-fDKl9nhUMYI1UaOo-159" style="rounded=0;orthogonalLoop=1;jettySize=auto;html=1;endArrow=none;endFill=0;" edge="1" parent="1" source="6-Q5m6dXEcSu-ddnl3AY-9" target="MPB-fDKl9nhUMYI1UaOo-151">
          <mxGeometry relative="1" as="geometry" />
        </mxCell>
        <mxCell id="6-Q5m6dXEcSu-ddnl3AY-9" value="PlanRiesgo" style="rounded=1;whiteSpace=wrap;html=1;fontSize=10;" vertex="1" parent="1">
          <mxGeometry x="80" y="455" width="80" height="40" as="geometry" />
        </mxCell>
        <mxCell id="6-Q5m6dXEcSu-ddnl3AY-28" value="" style="edgeStyle=orthogonalEdgeStyle;rounded=0;orthogonalLoop=1;jettySize=auto;html=1;fontSize=10;endArrow=none;startFill=0;" edge="1" parent="1" source="6-Q5m6dXEcSu-ddnl3AY-10" target="6-Q5m6dXEcSu-ddnl3AY-27">
          <mxGeometry relative="1" as="geometry" />
        </mxCell>
        <mxCell id="6-Q5m6dXEcSu-ddnl3AY-32" value="" style="edgeStyle=orthogonalEdgeStyle;rounded=0;orthogonalLoop=1;jettySize=auto;html=1;fontSize=10;endArrow=none;startFill=0;" edge="1" parent="1" source="6-Q5m6dXEcSu-ddnl3AY-10" target="6-Q5m6dXEcSu-ddnl3AY-25">
          <mxGeometry relative="1" as="geometry" />
        </mxCell>
        <mxCell id="bO-nzLQuyfonReFlk6xu-14" style="rounded=0;orthogonalLoop=1;jettySize=auto;html=1;endArrow=none;startFill=0;fontSize=10;" edge="1" parent="1" source="6-Q5m6dXEcSu-ddnl3AY-10" target="bO-nzLQuyfonReFlk6xu-13">
          <mxGeometry relative="1" as="geometry" />
        </mxCell>
        <mxCell id="bO-nzLQuyfonReFlk6xu-15" style="rounded=0;orthogonalLoop=1;jettySize=auto;html=1;endArrow=none;startFill=0;fontSize=10;" edge="1" parent="1" source="6-Q5m6dXEcSu-ddnl3AY-10" target="bO-nzLQuyfonReFlk6xu-11">
          <mxGeometry relative="1" as="geometry" />
        </mxCell>
        <mxCell id="bO-nzLQuyfonReFlk6xu-16" style="rounded=0;orthogonalLoop=1;jettySize=auto;html=1;endArrow=none;startFill=0;fontSize=10;" edge="1" parent="1" source="6-Q5m6dXEcSu-ddnl3AY-10" target="bO-nzLQuyfonReFlk6xu-12">
          <mxGeometry relative="1" as="geometry" />
        </mxCell>
        <mxCell id="bO-nzLQuyfonReFlk6xu-32" style="rounded=0;orthogonalLoop=1;jettySize=auto;html=1;endArrow=none;startFill=0;fontSize=10;" edge="1" parent="1" source="6-Q5m6dXEcSu-ddnl3AY-10" target="bO-nzLQuyfonReFlk6xu-31">
          <mxGeometry relative="1" as="geometry" />
        </mxCell>
        <mxCell id="bO-nzLQuyfonReFlk6xu-34" style="rounded=0;orthogonalLoop=1;jettySize=auto;html=1;endArrow=none;startFill=0;fontSize=10;" edge="1" parent="1" source="6-Q5m6dXEcSu-ddnl3AY-10" target="bO-nzLQuyfonReFlk6xu-33">
          <mxGeometry relative="1" as="geometry" />
        </mxCell>
        <mxCell id="6-Q5m6dXEcSu-ddnl3AY-10" value="Riesgo" style="rounded=1;whiteSpace=wrap;html=1;fontSize=10;" vertex="1" parent="1">
          <mxGeometry x="280" y="455" width="80" height="40" as="geometry" />
        </mxCell>
        <mxCell id="bO-nzLQuyfonReFlk6xu-27" style="rounded=0;orthogonalLoop=1;jettySize=auto;html=1;endArrow=none;startFill=0;fontSize=10;" edge="1" parent="1" source="6-Q5m6dXEcSu-ddnl3AY-11" target="bO-nzLQuyfonReFlk6xu-22">
          <mxGeometry relative="1" as="geometry" />
        </mxCell>
        <mxCell id="bO-nzLQuyfonReFlk6xu-28" style="rounded=0;orthogonalLoop=1;jettySize=auto;html=1;endArrow=none;startFill=0;fontSize=10;" edge="1" parent="1" source="6-Q5m6dXEcSu-ddnl3AY-11" target="bO-nzLQuyfonReFlk6xu-23">
          <mxGeometry relative="1" as="geometry" />
        </mxCell>
        <mxCell id="bO-nzLQuyfonReFlk6xu-29" style="rounded=0;orthogonalLoop=1;jettySize=auto;html=1;endArrow=none;startFill=0;fontSize=10;" edge="1" parent="1" source="6-Q5m6dXEcSu-ddnl3AY-11" target="bO-nzLQuyfonReFlk6xu-24">
          <mxGeometry relative="1" as="geometry" />
        </mxCell>
        <mxCell id="bO-nzLQuyfonReFlk6xu-30" style="rounded=0;orthogonalLoop=1;jettySize=auto;html=1;endArrow=none;startFill=0;fontSize=10;" edge="1" parent="1" source="6-Q5m6dXEcSu-ddnl3AY-11" target="bO-nzLQuyfonReFlk6xu-25">
          <mxGeometry relative="1" as="geometry" />
        </mxCell>
        <mxCell id="6-Q5m6dXEcSu-ddnl3AY-11" value="HistorialRiesgo" style="rounded=1;whiteSpace=wrap;html=1;fontSize=10;" vertex="1" parent="1">
          <mxGeometry x="280" y="615" width="80" height="40" as="geometry" />
        </mxCell>
        <mxCell id="6-Q5m6dXEcSu-ddnl3AY-18" style="edgeStyle=orthogonalEdgeStyle;rounded=0;orthogonalLoop=1;jettySize=auto;html=1;fontSize=10;endArrow=none;startFill=0;" edge="1" parent="1" source="6-Q5m6dXEcSu-ddnl3AY-16" target="6-Q5m6dXEcSu-ddnl3AY-8">
          <mxGeometry relative="1" as="geometry" />
        </mxCell>
        <mxCell id="6-Q5m6dXEcSu-ddnl3AY-16" value="asociado" style="rhombus;whiteSpace=wrap;html=1;fontSize=10;" vertex="1" parent="1">
          <mxGeometry x="300" y="215" width="40" height="40" as="geometry" />
        </mxCell>
        <mxCell id="6-Q5m6dXEcSu-ddnl3AY-24" value="" style="rounded=0;orthogonalLoop=1;jettySize=auto;html=1;fontSize=10;endArrow=none;startFill=0;edgeStyle=orthogonalEdgeStyle;" edge="1" parent="1" source="6-Q5m6dXEcSu-ddnl3AY-19" target="6-Q5m6dXEcSu-ddnl3AY-10">
          <mxGeometry relative="1" as="geometry" />
        </mxCell>
        <mxCell id="6-Q5m6dXEcSu-ddnl3AY-19" value="tiene" style="rhombus;whiteSpace=wrap;html=1;fontSize=10;" vertex="1" parent="1">
          <mxGeometry x="300" y="375" width="40" height="40" as="geometry" />
        </mxCell>
        <mxCell id="6-Q5m6dXEcSu-ddnl3AY-33" value="" style="edgeStyle=orthogonalEdgeStyle;rounded=0;orthogonalLoop=1;jettySize=auto;html=1;fontSize=10;endArrow=none;startFill=0;" edge="1" parent="1" source="6-Q5m6dXEcSu-ddnl3AY-25" target="6-Q5m6dXEcSu-ddnl3AY-11">
          <mxGeometry relative="1" as="geometry" />
        </mxCell>
        <mxCell id="6-Q5m6dXEcSu-ddnl3AY-25" value="tiene" style="rhombus;whiteSpace=wrap;html=1;fontSize=10;" vertex="1" parent="1">
          <mxGeometry x="300" y="535" width="40" height="40" as="geometry" />
        </mxCell>
        <mxCell id="6-Q5m6dXEcSu-ddnl3AY-29" value="" style="edgeStyle=orthogonalEdgeStyle;rounded=0;orthogonalLoop=1;jettySize=auto;html=1;fontSize=10;endArrow=none;startFill=0;" edge="1" parent="1" source="6-Q5m6dXEcSu-ddnl3AY-27" target="6-Q5m6dXEcSu-ddnl3AY-9">
          <mxGeometry relative="1" as="geometry" />
        </mxCell>
        <mxCell id="6-Q5m6dXEcSu-ddnl3AY-27" value="tiene" style="rhombus;whiteSpace=wrap;html=1;fontSize=10;" vertex="1" parent="1">
          <mxGeometry x="200" y="455" width="40" height="40" as="geometry" />
        </mxCell>
        <mxCell id="6-Q5m6dXEcSu-ddnl3AY-37" value="cedula" style="ellipse;whiteSpace=wrap;html=1;fontSize=10;" vertex="1" parent="1">
          <mxGeometry x="320" y="85" width="50" height="30" as="geometry" />
        </mxCell>
        <mxCell id="6-Q5m6dXEcSu-ddnl3AY-38" value="nombre" style="ellipse;whiteSpace=wrap;html=1;fontSize=10;" vertex="1" parent="1">
          <mxGeometry x="240" y="85" width="50" height="30" as="geometry" />
        </mxCell>
        <mxCell id="6-Q5m6dXEcSu-ddnl3AY-39" value="apellido" style="ellipse;whiteSpace=wrap;html=1;fontSize=10;" vertex="1" parent="1">
          <mxGeometry x="190" y="115" width="50" height="30" as="geometry" />
        </mxCell>
        <mxCell id="6-Q5m6dXEcSu-ddnl3AY-40" value="rol" style="ellipse;whiteSpace=wrap;html=1;fontSize=10;" vertex="1" parent="1">
          <mxGeometry x="195" y="165" width="50" height="30" as="geometry" />
        </mxCell>
        <mxCell id="6-Q5m6dXEcSu-ddnl3AY-42" value="id" style="ellipse;whiteSpace=wrap;html=1;fontSize=10;" vertex="1" parent="1">
          <mxGeometry x="200" y="275" width="50" height="30" as="geometry" />
        </mxCell>
        <mxCell id="6-Q5m6dXEcSu-ddnl3AY-43" value="nombre" style="ellipse;whiteSpace=wrap;html=1;fontSize=10;" vertex="1" parent="1">
          <mxGeometry x="240" y="240.5" width="50" height="30" as="geometry" />
        </mxCell>
        <mxCell id="6-Q5m6dXEcSu-ddnl3AY-44" value="estado" style="ellipse;whiteSpace=wrap;html=1;fontSize=10;" vertex="1" parent="1">
          <mxGeometry x="245" y="355" width="50" height="30" as="geometry" />
        </mxCell>
        <mxCell id="6-Q5m6dXEcSu-ddnl3AY-45" value="descripciÃ³n" style="ellipse;whiteSpace=wrap;html=1;fontSize=10;" vertex="1" parent="1">
          <mxGeometry x="200" y="325" width="50" height="30" as="geometry" />
        </mxCell>
        <mxCell id="bO-nzLQuyfonReFlk6xu-1" value="n:n" style="text;html=1;align=center;verticalAlign=middle;resizable=0;points=[];autosize=1;strokeColor=none;fillColor=none;fontSize=10;" vertex="1" parent="1">
          <mxGeometry x="340" y="220" width="40" height="30" as="geometry" />
        </mxCell>
        <mxCell id="bO-nzLQuyfonReFlk6xu-11" value="descripcion" style="ellipse;whiteSpace=wrap;html=1;fontSize=10;" vertex="1" parent="1">
          <mxGeometry x="400" y="425" width="50" height="30" as="geometry" />
        </mxCell>
        <mxCell id="bO-nzLQuyfonReFlk6xu-12" value="id" style="ellipse;whiteSpace=wrap;html=1;fontSize=10;" vertex="1" parent="1">
          <mxGeometry x="350" y="395" width="50" height="30" as="geometry" />
        </mxCell>
        <mxCell id="bO-nzLQuyfonReFlk6xu-13" value="estado" style="ellipse;whiteSpace=wrap;html=1;fontSize=10;" vertex="1" parent="1">
          <mxGeometry x="400" y="465" width="50" height="30" as="geometry" />
        </mxCell>
        <mxCell id="bO-nzLQuyfonReFlk6xu-22" value="descripcion" style="ellipse;whiteSpace=wrap;html=1;fontSize=10;" vertex="1" parent="1">
          <mxGeometry x="380" y="620" width="50" height="30" as="geometry" />
        </mxCell>
        <mxCell id="bO-nzLQuyfonReFlk6xu-23" value="id" style="ellipse;whiteSpace=wrap;html=1;fontSize=10;" vertex="1" parent="1">
          <mxGeometry x="210" y="620" width="50" height="30" as="geometry" />
        </mxCell>
        <mxCell id="bO-nzLQuyfonReFlk6xu-24" value="fecha" style="ellipse;whiteSpace=wrap;html=1;fontSize=10;" vertex="1" parent="1">
          <mxGeometry x="250" y="675" width="50" height="30" as="geometry" />
        </mxCell>
        <mxCell id="bO-nzLQuyfonReFlk6xu-25" value="estado" style="ellipse;whiteSpace=wrap;html=1;fontSize=10;" vertex="1" parent="1">
          <mxGeometry x="340" y="675" width="50" height="30" as="geometry" />
        </mxCell>
        <mxCell id="bO-nzLQuyfonReFlk6xu-31" value="prioridad" style="ellipse;whiteSpace=wrap;html=1;fontSize=10;" vertex="1" parent="1">
          <mxGeometry x="389" y="505" width="50" height="30" as="geometry" />
        </mxCell>
        <mxCell id="bO-nzLQuyfonReFlk6xu-33" value="categoria" style="ellipse;whiteSpace=wrap;html=1;fontSize=10;" vertex="1" parent="1">
          <mxGeometry x="350" y="535" width="50" height="30" as="geometry" />
        </mxCell>
        <mxCell id="UprzVMVuc7IPOBolAGJP-67" style="edgeStyle=orthogonalEdgeStyle;rounded=0;orthogonalLoop=1;jettySize=auto;html=1;exitX=1;exitY=0.5;exitDx=0;exitDy=0;endArrow=none;startFill=0;fontSize=10;" edge="1" parent="1" source="UprzVMVuc7IPOBolAGJP-68" target="UprzVMVuc7IPOBolAGJP-93">
          <mxGeometry relative="1" as="geometry">
            <mxPoint x="670" y="315" as="targetPoint" />
          </mxGeometry>
        </mxCell>
        <mxCell id="UprzVMVuc7IPOBolAGJP-68" value="Tiene" style="rhombus;whiteSpace=wrap;html=1;fontSize=10;" vertex="1" parent="1">
          <mxGeometry x="440" y="295" width="40" height="40" as="geometry" />
        </mxCell>
        <mxCell id="UprzVMVuc7IPOBolAGJP-77" value="1:n" style="text;html=1;align=center;verticalAlign=middle;resizable=0;points=[];autosize=1;strokeColor=none;fillColor=none;fontSize=10;" vertex="1" parent="1">
          <mxGeometry x="440" y="270.5" width="40" height="30" as="geometry" />
        </mxCell>
        <mxCell id="UprzVMVuc7IPOBolAGJP-91" value="descripciÃ³n" style="ellipse;whiteSpace=wrap;html=1;fontSize=10;" vertex="1" parent="1">
          <mxGeometry x="540" y="240.5" width="50" height="30" as="geometry" />
        </mxCell>
        <mxCell id="UprzVMVuc7IPOBolAGJP-92" value="id" style="ellipse;whiteSpace=wrap;html=1;fontSize=10;" vertex="1" parent="1">
          <mxGeometry x="611.5" y="240.5" width="50" height="30" as="geometry" />
        </mxCell>
        <mxCell id="UprzVMVuc7IPOBolAGJP-95" value="" style="rounded=0;orthogonalLoop=1;jettySize=auto;html=1;endArrow=none;startFill=0;fontSize=10;" edge="1" parent="1" source="UprzVMVuc7IPOBolAGJP-93" target="UprzVMVuc7IPOBolAGJP-92">
          <mxGeometry relative="1" as="geometry" />
        </mxCell>
        <mxCell id="UprzVMVuc7IPOBolAGJP-97" style="rounded=0;orthogonalLoop=1;jettySize=auto;html=1;endArrow=none;startFill=0;fontSize=10;" edge="1" parent="1" source="UprzVMVuc7IPOBolAGJP-93" target="UprzVMVuc7IPOBolAGJP-91">
          <mxGeometry relative="1" as="geometry" />
        </mxCell>
        <mxCell id="UprzVMVuc7IPOBolAGJP-93" value="Requisito" style="rounded=1;whiteSpace=wrap;html=1;fontSize=10;" vertex="1" parent="1">
          <mxGeometry x="560" y="295.5" width="80" height="40" as="geometry" />
        </mxCell>
        <mxCell id="UprzVMVuc7IPOBolAGJP-107" value="Cuenta" style="rounded=1;whiteSpace=wrap;html=1;fontSize=10;" vertex="1" parent="1">
          <mxGeometry x="480" y="135" width="80" height="40" as="geometry" />
        </mxCell>
        <mxCell id="UprzVMVuc7IPOBolAGJP-108" value="tiene" style="rhombus;whiteSpace=wrap;html=1;fontSize=10;" vertex="1" parent="1">
          <mxGeometry x="400" y="135" width="40" height="40" as="geometry" />
        </mxCell>
        <mxCell id="UprzVMVuc7IPOBolAGJP-109" style="rounded=0;orthogonalLoop=1;jettySize=auto;html=1;endArrow=none;startFill=0;fontSize=10;" edge="1" parent="1" source="UprzVMVuc7IPOBolAGJP-108" target="UprzVMVuc7IPOBolAGJP-107">
          <mxGeometry relative="1" as="geometry">
            <mxPoint x="420" y="165" as="sourcePoint" />
            <mxPoint x="460" y="165" as="targetPoint" />
          </mxGeometry>
        </mxCell>
        <mxCell id="UprzVMVuc7IPOBolAGJP-111" value="gmail" style="ellipse;whiteSpace=wrap;html=1;fontSize=10;" vertex="1" parent="1">
          <mxGeometry x="450" y="85" width="50" height="30" as="geometry" />
        </mxCell>
        <mxCell id="UprzVMVuc7IPOBolAGJP-112" value="contraseÃ±a" style="ellipse;whiteSpace=wrap;html=1;fontSize=10;" vertex="1" parent="1">
          <mxGeometry x="534" y="85" width="50" height="30" as="geometry" />
        </mxCell>
        <mxCell id="UprzVMVuc7IPOBolAGJP-113" style="rounded=0;orthogonalLoop=1;jettySize=auto;html=1;endArrow=none;startFill=0;fontSize=10;" edge="1" parent="1" source="UprzVMVuc7IPOBolAGJP-111" target="UprzVMVuc7IPOBolAGJP-107">
          <mxGeometry relative="1" as="geometry">
            <mxPoint x="440" y="145" as="sourcePoint" />
            <mxPoint x="480" y="145" as="targetPoint" />
          </mxGeometry>
        </mxCell>
        <mxCell id="UprzVMVuc7IPOBolAGJP-114" style="rounded=0;orthogonalLoop=1;jettySize=auto;html=1;endArrow=none;startFill=0;fontSize=10;" edge="1" parent="1" source="UprzVMVuc7IPOBolAGJP-112" target="UprzVMVuc7IPOBolAGJP-107">
          <mxGeometry relative="1" as="geometry">
            <mxPoint x="500" y="155" as="sourcePoint" />
            <mxPoint x="518" y="177" as="targetPoint" />
          </mxGeometry>
        </mxCell>
        <mxCell id="UprzVMVuc7IPOBolAGJP-116" value="1:1" style="text;html=1;align=center;verticalAlign=middle;resizable=0;points=[];autosize=1;strokeColor=none;fillColor=none;fontSize=10;" vertex="1" parent="1">
          <mxGeometry x="400" y="115" width="40" height="30" as="geometry" />
        </mxCell>
        <mxCell id="UprzVMVuc7IPOBolAGJP-117" value="1:n" style="text;html=1;align=center;verticalAlign=middle;resizable=0;points=[];autosize=1;strokeColor=none;fillColor=none;fontSize=10;" vertex="1" parent="1">
          <mxGeometry x="270" y="380" width="40" height="30" as="geometry" />
        </mxCell>
        <mxCell id="UprzVMVuc7IPOBolAGJP-118" value="1:1." style="text;html=1;align=center;verticalAlign=middle;resizable=0;points=[];autosize=1;strokeColor=none;fillColor=none;fontSize=10;" vertex="1" parent="1">
          <mxGeometry x="200" y="435" width="40" height="30" as="geometry" />
        </mxCell>
        <mxCell id="UprzVMVuc7IPOBolAGJP-120" value="1:1" style="text;html=1;align=center;verticalAlign=middle;resizable=0;points=[];autosize=1;strokeColor=none;fillColor=none;fontSize=10;" vertex="1" parent="1">
          <mxGeometry x="270" y="540" width="40" height="30" as="geometry" />
        </mxCell>
        <mxCell id="iw_2Tvpvx7eZhHEt1MOi-2" value="Usuario" style="shape=table;startSize=30;container=1;collapsible=1;childLayout=tableLayout;fixedRows=1;rowLines=0;fontStyle=1;align=center;resizeLast=1;html=1;" vertex="1" parent="1">
          <mxGeometry x="1500" y="40" width="160" height="120" as="geometry" />
        </mxCell>
        <mxCell id="iw_2Tvpvx7eZhHEt1MOi-3" value="" style="shape=tableRow;horizontal=0;startSize=0;swimlaneHead=0;swimlaneBody=0;fillColor=none;collapsible=0;dropTarget=0;points=[[0,0.5],[1,0.5]];portConstraint=eastwest;top=0;left=0;right=0;bottom=1;" vertex="1" parent="iw_2Tvpvx7eZhHEt1MOi-2">
          <mxGeometry y="30" width="160" height="30" as="geometry" />
        </mxCell>
        <mxCell id="iw_2Tvpvx7eZhHEt1MOi-4" value="PK" style="shape=partialRectangle;connectable=0;fillColor=none;top=0;left=0;bottom=0;right=0;fontStyle=1;overflow=hidden;whiteSpace=wrap;html=1;" vertex="1" parent="iw_2Tvpvx7eZhHEt1MOi-3">
          <mxGeometry width="30" height="30" as="geometry">
            <mxRectangle width="30" height="30" as="alternateBounds" />
          </mxGeometry>
        </mxCell>
        <mxCell id="iw_2Tvpvx7eZhHEt1MOi-5" value="cedula" style="shape=partialRectangle;connectable=0;fillColor=none;top=0;left=0;bottom=0;right=0;align=left;spacingLeft=6;fontStyle=5;overflow=hidden;whiteSpace=wrap;html=1;" vertex="1" parent="iw_2Tvpvx7eZhHEt1MOi-3">
          <mxGeometry x="30" width="130" height="30" as="geometry">
            <mxRectangle width="130" height="30" as="alternateBounds" />
          </mxGeometry>
        </mxCell>
        <mxCell id="iw_2Tvpvx7eZhHEt1MOi-6" value="" style="shape=tableRow;horizontal=0;startSize=0;swimlaneHead=0;swimlaneBody=0;fillColor=none;collapsible=0;dropTarget=0;points=[[0,0.5],[1,0.5]];portConstraint=eastwest;top=0;left=0;right=0;bottom=0;" vertex="1" parent="iw_2Tvpvx7eZhHEt1MOi-2">
          <mxGeometry y="60" width="160" height="30" as="geometry" />
        </mxCell>
        <mxCell id="iw_2Tvpvx7eZhHEt1MOi-7" value="" style="shape=partialRectangle;connectable=0;fillColor=none;top=0;left=0;bottom=0;right=0;editable=1;overflow=hidden;whiteSpace=wrap;html=1;" vertex="1" parent="iw_2Tvpvx7eZhHEt1MOi-6">
          <mxGeometry width="30" height="30" as="geometry">
            <mxRectangle width="30" height="30" as="alternateBounds" />
          </mxGeometry>
        </mxCell>
        <mxCell id="iw_2Tvpvx7eZhHEt1MOi-8" value="nombre" style="shape=partialRectangle;connectable=0;fillColor=none;top=0;left=0;bottom=0;right=0;align=left;spacingLeft=6;overflow=hidden;whiteSpace=wrap;html=1;" vertex="1" parent="iw_2Tvpvx7eZhHEt1MOi-6">
          <mxGeometry x="30" width="130" height="30" as="geometry">
            <mxRectangle width="130" height="30" as="alternateBounds" />
          </mxGeometry>
        </mxCell>
        <mxCell id="iw_2Tvpvx7eZhHEt1MOi-9" value="" style="shape=tableRow;horizontal=0;startSize=0;swimlaneHead=0;swimlaneBody=0;fillColor=none;collapsible=0;dropTarget=0;points=[[0,0.5],[1,0.5]];portConstraint=eastwest;top=0;left=0;right=0;bottom=0;" vertex="1" parent="iw_2Tvpvx7eZhHEt1MOi-2">
          <mxGeometry y="90" width="160" height="30" as="geometry" />
        </mxCell>
        <mxCell id="iw_2Tvpvx7eZhHEt1MOi-10" value="" style="shape=partialRectangle;connectable=0;fillColor=none;top=0;left=0;bottom=0;right=0;editable=1;overflow=hidden;whiteSpace=wrap;html=1;" vertex="1" parent="iw_2Tvpvx7eZhHEt1MOi-9">
          <mxGeometry width="30" height="30" as="geometry">
            <mxRectangle width="30" height="30" as="alternateBounds" />
          </mxGeometry>
        </mxCell>
        <mxCell id="iw_2Tvpvx7eZhHEt1MOi-11" value="apellido" style="shape=partialRectangle;connectable=0;fillColor=none;top=0;left=0;bottom=0;right=0;align=left;spacingLeft=6;overflow=hidden;whiteSpace=wrap;html=1;" vertex="1" parent="iw_2Tvpvx7eZhHEt1MOi-9">
          <mxGeometry x="30" width="130" height="30" as="geometry">
            <mxRectangle width="130" height="30" as="alternateBounds" />
          </mxGeometry>
        </mxCell>
        <mxCell id="iw_2Tvpvx7eZhHEt1MOi-15" value="Cuenta" style="shape=table;startSize=30;container=1;collapsible=1;childLayout=tableLayout;fixedRows=1;rowLines=0;fontStyle=1;align=center;resizeLast=1;html=1;" vertex="1" parent="1">
          <mxGeometry x="1740" y="40" width="160" height="150" as="geometry" />
        </mxCell>
        <mxCell id="iw_2Tvpvx7eZhHEt1MOi-42" value="" style="shape=tableRow;horizontal=0;startSize=0;swimlaneHead=0;swimlaneBody=0;fillColor=none;collapsible=0;dropTarget=0;points=[[0,0.5],[1,0.5]];portConstraint=eastwest;top=0;left=0;right=0;bottom=1;" vertex="1" parent="iw_2Tvpvx7eZhHEt1MOi-15">
          <mxGeometry y="30" width="160" height="30" as="geometry" />
        </mxCell>
        <mxCell id="iw_2Tvpvx7eZhHEt1MOi-43" value="PK" style="shape=partialRectangle;connectable=0;fillColor=none;top=0;left=0;bottom=0;right=0;fontStyle=1;overflow=hidden;whiteSpace=wrap;html=1;" vertex="1" parent="iw_2Tvpvx7eZhHEt1MOi-42">
          <mxGeometry width="30" height="30" as="geometry">
            <mxRectangle width="30" height="30" as="alternateBounds" />
          </mxGeometry>
        </mxCell>
        <mxCell id="iw_2Tvpvx7eZhHEt1MOi-44" value="id_cuenta" style="shape=partialRectangle;connectable=0;fillColor=none;top=0;left=0;bottom=0;right=0;align=left;spacingLeft=6;fontStyle=5;overflow=hidden;whiteSpace=wrap;html=1;" vertex="1" parent="iw_2Tvpvx7eZhHEt1MOi-42">
          <mxGeometry x="30" width="130" height="30" as="geometry">
            <mxRectangle width="130" height="30" as="alternateBounds" />
          </mxGeometry>
        </mxCell>
        <mxCell id="iw_2Tvpvx7eZhHEt1MOi-16" value="" style="shape=tableRow;horizontal=0;startSize=0;swimlaneHead=0;swimlaneBody=0;fillColor=none;collapsible=0;dropTarget=0;points=[[0,0.5],[1,0.5]];portConstraint=eastwest;top=0;left=0;right=0;bottom=1;" vertex="1" parent="iw_2Tvpvx7eZhHEt1MOi-15">
          <mxGeometry y="60" width="160" height="30" as="geometry" />
        </mxCell>
        <mxCell id="iw_2Tvpvx7eZhHEt1MOi-17" value="FK" style="shape=partialRectangle;connectable=0;fillColor=none;top=0;left=0;bottom=0;right=0;fontStyle=1;overflow=hidden;whiteSpace=wrap;html=1;" vertex="1" parent="iw_2Tvpvx7eZhHEt1MOi-16">
          <mxGeometry width="30" height="30" as="geometry">
            <mxRectangle width="30" height="30" as="alternateBounds" />
          </mxGeometry>
        </mxCell>
        <mxCell id="iw_2Tvpvx7eZhHEt1MOi-18" value="cedula" style="shape=partialRectangle;connectable=0;fillColor=none;top=0;left=0;bottom=0;right=0;align=left;spacingLeft=6;fontStyle=5;overflow=hidden;whiteSpace=wrap;html=1;" vertex="1" parent="iw_2Tvpvx7eZhHEt1MOi-16">
          <mxGeometry x="30" width="130" height="30" as="geometry">
            <mxRectangle width="130" height="30" as="alternateBounds" />
          </mxGeometry>
        </mxCell>
        <mxCell id="iw_2Tvpvx7eZhHEt1MOi-19" value="" style="shape=tableRow;horizontal=0;startSize=0;swimlaneHead=0;swimlaneBody=0;fillColor=none;collapsible=0;dropTarget=0;points=[[0,0.5],[1,0.5]];portConstraint=eastwest;top=0;left=0;right=0;bottom=0;" vertex="1" parent="iw_2Tvpvx7eZhHEt1MOi-15">
          <mxGeometry y="90" width="160" height="30" as="geometry" />
        </mxCell>
        <mxCell id="iw_2Tvpvx7eZhHEt1MOi-20" value="" style="shape=partialRectangle;connectable=0;fillColor=none;top=0;left=0;bottom=0;right=0;editable=1;overflow=hidden;whiteSpace=wrap;html=1;" vertex="1" parent="iw_2Tvpvx7eZhHEt1MOi-19">
          <mxGeometry width="30" height="30" as="geometry">
            <mxRectangle width="30" height="30" as="alternateBounds" />
          </mxGeometry>
        </mxCell>
        <mxCell id="iw_2Tvpvx7eZhHEt1MOi-21" value="gmail" style="shape=partialRectangle;connectable=0;fillColor=none;top=0;left=0;bottom=0;right=0;align=left;spacingLeft=6;overflow=hidden;whiteSpace=wrap;html=1;" vertex="1" parent="iw_2Tvpvx7eZhHEt1MOi-19">
          <mxGeometry x="30" width="130" height="30" as="geometry">
            <mxRectangle width="130" height="30" as="alternateBounds" />
          </mxGeometry>
        </mxCell>
        <mxCell id="iw_2Tvpvx7eZhHEt1MOi-45" value="" style="shape=tableRow;horizontal=0;startSize=0;swimlaneHead=0;swimlaneBody=0;fillColor=none;collapsible=0;dropTarget=0;points=[[0,0.5],[1,0.5]];portConstraint=eastwest;top=0;left=0;right=0;bottom=0;" vertex="1" parent="iw_2Tvpvx7eZhHEt1MOi-15">
          <mxGeometry y="120" width="160" height="30" as="geometry" />
        </mxCell>
        <mxCell id="iw_2Tvpvx7eZhHEt1MOi-46" value="" style="shape=partialRectangle;connectable=0;fillColor=none;top=0;left=0;bottom=0;right=0;editable=1;overflow=hidden;whiteSpace=wrap;html=1;" vertex="1" parent="iw_2Tvpvx7eZhHEt1MOi-45">
          <mxGeometry width="30" height="30" as="geometry">
            <mxRectangle width="30" height="30" as="alternateBounds" />
          </mxGeometry>
        </mxCell>
        <mxCell id="iw_2Tvpvx7eZhHEt1MOi-47" value="contraseÃ±a" style="shape=partialRectangle;connectable=0;fillColor=none;top=0;left=0;bottom=0;right=0;align=left;spacingLeft=6;overflow=hidden;whiteSpace=wrap;html=1;" vertex="1" parent="iw_2Tvpvx7eZhHEt1MOi-45">
          <mxGeometry x="30" width="130" height="30" as="geometry">
            <mxRectangle width="130" height="30" as="alternateBounds" />
          </mxGeometry>
        </mxCell>
        <mxCell id="iw_2Tvpvx7eZhHEt1MOi-48" value="Proyecto" style="shape=table;startSize=30;container=1;collapsible=1;childLayout=tableLayout;fixedRows=1;rowLines=0;fontStyle=1;align=center;resizeLast=1;html=1;" vertex="1" parent="1">
          <mxGeometry x="1500" y="320" width="160" height="150" as="geometry" />
        </mxCell>
        <mxCell id="iw_2Tvpvx7eZhHEt1MOi-49" value="" style="shape=tableRow;horizontal=0;startSize=0;swimlaneHead=0;swimlaneBody=0;fillColor=none;collapsible=0;dropTarget=0;points=[[0,0.5],[1,0.5]];portConstraint=eastwest;top=0;left=0;right=0;bottom=1;" vertex="1" parent="iw_2Tvpvx7eZhHEt1MOi-48">
          <mxGeometry y="30" width="160" height="30" as="geometry" />
        </mxCell>
        <mxCell id="iw_2Tvpvx7eZhHEt1MOi-50" value="PK" style="shape=partialRectangle;connectable=0;fillColor=none;top=0;left=0;bottom=0;right=0;fontStyle=1;overflow=hidden;whiteSpace=wrap;html=1;" vertex="1" parent="iw_2Tvpvx7eZhHEt1MOi-49">
          <mxGeometry width="30" height="30" as="geometry">
            <mxRectangle width="30" height="30" as="alternateBounds" />
          </mxGeometry>
        </mxCell>
        <mxCell id="iw_2Tvpvx7eZhHEt1MOi-51" value="id_proyecto" style="shape=partialRectangle;connectable=0;fillColor=none;top=0;left=0;bottom=0;right=0;align=left;spacingLeft=6;fontStyle=5;overflow=hidden;whiteSpace=wrap;html=1;" vertex="1" parent="iw_2Tvpvx7eZhHEt1MOi-49">
          <mxGeometry x="30" width="130" height="30" as="geometry">
            <mxRectangle width="130" height="30" as="alternateBounds" />
          </mxGeometry>
        </mxCell>
        <mxCell id="iw_2Tvpvx7eZhHEt1MOi-52" value="" style="shape=tableRow;horizontal=0;startSize=0;swimlaneHead=0;swimlaneBody=0;fillColor=none;collapsible=0;dropTarget=0;points=[[0,0.5],[1,0.5]];portConstraint=eastwest;top=0;left=0;right=0;bottom=0;" vertex="1" parent="iw_2Tvpvx7eZhHEt1MOi-48">
          <mxGeometry y="60" width="160" height="30" as="geometry" />
        </mxCell>
        <mxCell id="iw_2Tvpvx7eZhHEt1MOi-53" value="" style="shape=partialRectangle;connectable=0;fillColor=none;top=0;left=0;bottom=0;right=0;editable=1;overflow=hidden;whiteSpace=wrap;html=1;" vertex="1" parent="iw_2Tvpvx7eZhHEt1MOi-52">
          <mxGeometry width="30" height="30" as="geometry">
            <mxRectangle width="30" height="30" as="alternateBounds" />
          </mxGeometry>
        </mxCell>
        <mxCell id="iw_2Tvpvx7eZhHEt1MOi-54" value="nombre" style="shape=partialRectangle;connectable=0;fillColor=none;top=0;left=0;bottom=0;right=0;align=left;spacingLeft=6;overflow=hidden;whiteSpace=wrap;html=1;" vertex="1" parent="iw_2Tvpvx7eZhHEt1MOi-52">
          <mxGeometry x="30" width="130" height="30" as="geometry">
            <mxRectangle width="130" height="30" as="alternateBounds" />
          </mxGeometry>
        </mxCell>
        <mxCell id="iw_2Tvpvx7eZhHEt1MOi-55" value="" style="shape=tableRow;horizontal=0;startSize=0;swimlaneHead=0;swimlaneBody=0;fillColor=none;collapsible=0;dropTarget=0;points=[[0,0.5],[1,0.5]];portConstraint=eastwest;top=0;left=0;right=0;bottom=0;" vertex="1" parent="iw_2Tvpvx7eZhHEt1MOi-48">
          <mxGeometry y="90" width="160" height="30" as="geometry" />
        </mxCell>
        <mxCell id="iw_2Tvpvx7eZhHEt1MOi-56" value="" style="shape=partialRectangle;connectable=0;fillColor=none;top=0;left=0;bottom=0;right=0;editable=1;overflow=hidden;whiteSpace=wrap;html=1;" vertex="1" parent="iw_2Tvpvx7eZhHEt1MOi-55">
          <mxGeometry width="30" height="30" as="geometry">
            <mxRectangle width="30" height="30" as="alternateBounds" />
          </mxGeometry>
        </mxCell>
        <mxCell id="iw_2Tvpvx7eZhHEt1MOi-57" value="descripcion" style="shape=partialRectangle;connectable=0;fillColor=none;top=0;left=0;bottom=0;right=0;align=left;spacingLeft=6;overflow=hidden;whiteSpace=wrap;html=1;" vertex="1" parent="iw_2Tvpvx7eZhHEt1MOi-55">
          <mxGeometry x="30" width="130" height="30" as="geometry">
            <mxRectangle width="130" height="30" as="alternateBounds" />
          </mxGeometry>
        </mxCell>
        <mxCell id="iw_2Tvpvx7eZhHEt1MOi-58" value="" style="shape=tableRow;horizontal=0;startSize=0;swimlaneHead=0;swimlaneBody=0;fillColor=none;collapsible=0;dropTarget=0;points=[[0,0.5],[1,0.5]];portConstraint=eastwest;top=0;left=0;right=0;bottom=0;" vertex="1" parent="iw_2Tvpvx7eZhHEt1MOi-48">
          <mxGeometry y="120" width="160" height="30" as="geometry" />
        </mxCell>
        <mxCell id="iw_2Tvpvx7eZhHEt1MOi-59" value="" style="shape=partialRectangle;connectable=0;fillColor=none;top=0;left=0;bottom=0;right=0;editable=1;overflow=hidden;whiteSpace=wrap;html=1;" vertex="1" parent="iw_2Tvpvx7eZhHEt1MOi-58">
          <mxGeometry width="30" height="30" as="geometry">
            <mxRectangle width="30" height="30" as="alternateBounds" />
          </mxGeometry>
        </mxCell>
        <mxCell id="iw_2Tvpvx7eZhHEt1MOi-60" value="estado" style="shape=partialRectangle;connectable=0;fillColor=none;top=0;left=0;bottom=0;right=0;align=left;spacingLeft=6;overflow=hidden;whiteSpace=wrap;html=1;" vertex="1" parent="iw_2Tvpvx7eZhHEt1MOi-58">
          <mxGeometry x="30" width="130" height="30" as="geometry">
            <mxRectangle width="130" height="30" as="alternateBounds" />
          </mxGeometry>
        </mxCell>
        <mxCell id="MPB-fDKl9nhUMYI1UaOo-1" value="Requisito" style="shape=table;startSize=30;container=1;collapsible=1;childLayout=tableLayout;fixedRows=1;rowLines=0;fontStyle=1;align=center;resizeLast=1;html=1;" vertex="1" parent="1">
          <mxGeometry x="1740" y="320" width="160" height="120" as="geometry" />
        </mxCell>
        <mxCell id="MPB-fDKl9nhUMYI1UaOo-15" value="" style="shape=tableRow;horizontal=0;startSize=0;swimlaneHead=0;swimlaneBody=0;fillColor=none;collapsible=0;dropTarget=0;points=[[0,0.5],[1,0.5]];portConstraint=eastwest;top=0;left=0;right=0;bottom=1;" vertex="1" parent="MPB-fDKl9nhUMYI1UaOo-1">
          <mxGeometry y="30" width="160" height="30" as="geometry" />
        </mxCell>
        <mxCell id="MPB-fDKl9nhUMYI1UaOo-16" value="PK" style="shape=partialRectangle;connectable=0;fillColor=none;top=0;left=0;bottom=0;right=0;fontStyle=1;overflow=hidden;whiteSpace=wrap;html=1;" vertex="1" parent="MPB-fDKl9nhUMYI1UaOo-15">
          <mxGeometry width="30" height="30" as="geometry">
            <mxRectangle width="30" height="30" as="alternateBounds" />
          </mxGeometry>
        </mxCell>
        <mxCell id="MPB-fDKl9nhUMYI1UaOo-17" value="id_requisito" style="shape=partialRectangle;connectable=0;fillColor=none;top=0;left=0;bottom=0;right=0;align=left;spacingLeft=6;fontStyle=5;overflow=hidden;whiteSpace=wrap;html=1;" vertex="1" parent="MPB-fDKl9nhUMYI1UaOo-15">
          <mxGeometry x="30" width="130" height="30" as="geometry">
            <mxRectangle width="130" height="30" as="alternateBounds" />
          </mxGeometry>
        </mxCell>
        <mxCell id="MPB-fDKl9nhUMYI1UaOo-2" value="" style="shape=tableRow;horizontal=0;startSize=0;swimlaneHead=0;swimlaneBody=0;fillColor=none;collapsible=0;dropTarget=0;points=[[0,0.5],[1,0.5]];portConstraint=eastwest;top=0;left=0;right=0;bottom=1;" vertex="1" parent="MPB-fDKl9nhUMYI1UaOo-1">
          <mxGeometry y="60" width="160" height="30" as="geometry" />
        </mxCell>
        <mxCell id="MPB-fDKl9nhUMYI1UaOo-3" value="PK" style="shape=partialRectangle;connectable=0;fillColor=none;top=0;left=0;bottom=0;right=0;fontStyle=1;overflow=hidden;whiteSpace=wrap;html=1;" vertex="1" parent="MPB-fDKl9nhUMYI1UaOo-2">
          <mxGeometry width="30" height="30" as="geometry">
            <mxRectangle width="30" height="30" as="alternateBounds" />
          </mxGeometry>
        </mxCell>
        <mxCell id="MPB-fDKl9nhUMYI1UaOo-4" value="id_proyecto" style="shape=partialRectangle;connectable=0;fillColor=none;top=0;left=0;bottom=0;right=0;align=left;spacingLeft=6;fontStyle=5;overflow=hidden;whiteSpace=wrap;html=1;" vertex="1" parent="MPB-fDKl9nhUMYI1UaOo-2">
          <mxGeometry x="30" width="130" height="30" as="geometry">
            <mxRectangle width="130" height="30" as="alternateBounds" />
          </mxGeometry>
        </mxCell>
        <mxCell id="MPB-fDKl9nhUMYI1UaOo-8" value="" style="shape=tableRow;horizontal=0;startSize=0;swimlaneHead=0;swimlaneBody=0;fillColor=none;collapsible=0;dropTarget=0;points=[[0,0.5],[1,0.5]];portConstraint=eastwest;top=0;left=0;right=0;bottom=0;" vertex="1" parent="MPB-fDKl9nhUMYI1UaOo-1">
          <mxGeometry y="90" width="160" height="30" as="geometry" />
        </mxCell>
        <mxCell id="MPB-fDKl9nhUMYI1UaOo-9" value="" style="shape=partialRectangle;connectable=0;fillColor=none;top=0;left=0;bottom=0;right=0;editable=1;overflow=hidden;whiteSpace=wrap;html=1;" vertex="1" parent="MPB-fDKl9nhUMYI1UaOo-8">
          <mxGeometry width="30" height="30" as="geometry">
            <mxRectangle width="30" height="30" as="alternateBounds" />
          </mxGeometry>
        </mxCell>
        <mxCell id="MPB-fDKl9nhUMYI1UaOo-10" value="descripcion" style="shape=partialRectangle;connectable=0;fillColor=none;top=0;left=0;bottom=0;right=0;align=left;spacingLeft=6;overflow=hidden;whiteSpace=wrap;html=1;" vertex="1" parent="MPB-fDKl9nhUMYI1UaOo-8">
          <mxGeometry x="30" width="130" height="30" as="geometry">
            <mxRectangle width="130" height="30" as="alternateBounds" />
          </mxGeometry>
        </mxCell>
        <mxCell id="MPB-fDKl9nhUMYI1UaOo-27" value="Riesgo" style="shape=table;startSize=30;container=1;collapsible=1;childLayout=tableLayout;fixedRows=1;rowLines=0;fontStyle=1;align=center;resizeLast=1;html=1;" vertex="1" parent="1">
          <mxGeometry x="1140" y="440" width="160" height="210" as="geometry" />
        </mxCell>
        <mxCell id="MPB-fDKl9nhUMYI1UaOo-47" value="" style="shape=tableRow;horizontal=0;startSize=0;swimlaneHead=0;swimlaneBody=0;fillColor=none;collapsible=0;dropTarget=0;points=[[0,0.5],[1,0.5]];portConstraint=eastwest;top=0;left=0;right=0;bottom=1;" vertex="1" parent="MPB-fDKl9nhUMYI1UaOo-27">
          <mxGeometry y="30" width="160" height="30" as="geometry" />
        </mxCell>
        <mxCell id="MPB-fDKl9nhUMYI1UaOo-48" value="FK" style="shape=partialRectangle;connectable=0;fillColor=none;top=0;left=0;bottom=0;right=0;fontStyle=1;overflow=hidden;whiteSpace=wrap;html=1;" vertex="1" parent="MPB-fDKl9nhUMYI1UaOo-47">
          <mxGeometry width="30" height="30" as="geometry">
            <mxRectangle width="30" height="30" as="alternateBounds" />
          </mxGeometry>
        </mxCell>
        <mxCell id="MPB-fDKl9nhUMYI1UaOo-49" value="id_proyecto" style="shape=partialRectangle;connectable=0;fillColor=none;top=0;left=0;bottom=0;right=0;align=left;spacingLeft=6;fontStyle=5;overflow=hidden;whiteSpace=wrap;html=1;" vertex="1" parent="MPB-fDKl9nhUMYI1UaOo-47">
          <mxGeometry x="30" width="130" height="30" as="geometry">
            <mxRectangle width="130" height="30" as="alternateBounds" />
          </mxGeometry>
        </mxCell>
        <mxCell id="MPB-fDKl9nhUMYI1UaOo-44" value="" style="shape=tableRow;horizontal=0;startSize=0;swimlaneHead=0;swimlaneBody=0;fillColor=none;collapsible=0;dropTarget=0;points=[[0,0.5],[1,0.5]];portConstraint=eastwest;top=0;left=0;right=0;bottom=1;" vertex="1" parent="MPB-fDKl9nhUMYI1UaOo-27">
          <mxGeometry y="60" width="160" height="30" as="geometry" />
        </mxCell>
        <mxCell id="MPB-fDKl9nhUMYI1UaOo-45" value="PK" style="shape=partialRectangle;connectable=0;fillColor=none;top=0;left=0;bottom=0;right=0;fontStyle=1;overflow=hidden;whiteSpace=wrap;html=1;" vertex="1" parent="MPB-fDKl9nhUMYI1UaOo-44">
          <mxGeometry width="30" height="30" as="geometry">
            <mxRectangle width="30" height="30" as="alternateBounds" />
          </mxGeometry>
        </mxCell>
        <mxCell id="MPB-fDKl9nhUMYI1UaOo-46" value="id_riesgo" style="shape=partialRectangle;connectable=0;fillColor=none;top=0;left=0;bottom=0;right=0;align=left;spacingLeft=6;fontStyle=5;overflow=hidden;whiteSpace=wrap;html=1;" vertex="1" parent="MPB-fDKl9nhUMYI1UaOo-44">
          <mxGeometry x="30" width="130" height="30" as="geometry">
            <mxRectangle width="130" height="30" as="alternateBounds" />
          </mxGeometry>
        </mxCell>
        <mxCell id="MPB-fDKl9nhUMYI1UaOo-34" value="" style="shape=tableRow;horizontal=0;startSize=0;swimlaneHead=0;swimlaneBody=0;fillColor=none;collapsible=0;dropTarget=0;points=[[0,0.5],[1,0.5]];portConstraint=eastwest;top=0;left=0;right=0;bottom=0;" vertex="1" parent="MPB-fDKl9nhUMYI1UaOo-27">
          <mxGeometry y="90" width="160" height="30" as="geometry" />
        </mxCell>
        <mxCell id="MPB-fDKl9nhUMYI1UaOo-35" value="" style="shape=partialRectangle;connectable=0;fillColor=none;top=0;left=0;bottom=0;right=0;editable=1;overflow=hidden;whiteSpace=wrap;html=1;" vertex="1" parent="MPB-fDKl9nhUMYI1UaOo-34">
          <mxGeometry width="30" height="30" as="geometry">
            <mxRectangle width="30" height="30" as="alternateBounds" />
          </mxGeometry>
        </mxCell>
        <mxCell id="MPB-fDKl9nhUMYI1UaOo-36" value="descripcion" style="shape=partialRectangle;connectable=0;fillColor=none;top=0;left=0;bottom=0;right=0;align=left;spacingLeft=6;overflow=hidden;whiteSpace=wrap;html=1;" vertex="1" parent="MPB-fDKl9nhUMYI1UaOo-34">
          <mxGeometry x="30" width="130" height="30" as="geometry">
            <mxRectangle width="130" height="30" as="alternateBounds" />
          </mxGeometry>
        </mxCell>
        <mxCell id="MPB-fDKl9nhUMYI1UaOo-37" value="" style="shape=tableRow;horizontal=0;startSize=0;swimlaneHead=0;swimlaneBody=0;fillColor=none;collapsible=0;dropTarget=0;points=[[0,0.5],[1,0.5]];portConstraint=eastwest;top=0;left=0;right=0;bottom=0;" vertex="1" parent="MPB-fDKl9nhUMYI1UaOo-27">
          <mxGeometry y="120" width="160" height="30" as="geometry" />
        </mxCell>
        <mxCell id="MPB-fDKl9nhUMYI1UaOo-38" value="" style="shape=partialRectangle;connectable=0;fillColor=none;top=0;left=0;bottom=0;right=0;editable=1;overflow=hidden;whiteSpace=wrap;html=1;" vertex="1" parent="MPB-fDKl9nhUMYI1UaOo-37">
          <mxGeometry width="30" height="30" as="geometry">
            <mxRectangle width="30" height="30" as="alternateBounds" />
          </mxGeometry>
        </mxCell>
        <mxCell id="MPB-fDKl9nhUMYI1UaOo-39" value="estado" style="shape=partialRectangle;connectable=0;fillColor=none;top=0;left=0;bottom=0;right=0;align=left;spacingLeft=6;overflow=hidden;whiteSpace=wrap;html=1;" vertex="1" parent="MPB-fDKl9nhUMYI1UaOo-37">
          <mxGeometry x="30" width="130" height="30" as="geometry">
            <mxRectangle width="130" height="30" as="alternateBounds" />
          </mxGeometry>
        </mxCell>
        <mxCell id="MPB-fDKl9nhUMYI1UaOo-56" value="" style="shape=tableRow;horizontal=0;startSize=0;swimlaneHead=0;swimlaneBody=0;fillColor=none;collapsible=0;dropTarget=0;points=[[0,0.5],[1,0.5]];portConstraint=eastwest;top=0;left=0;right=0;bottom=0;" vertex="1" parent="MPB-fDKl9nhUMYI1UaOo-27">
          <mxGeometry y="150" width="160" height="30" as="geometry" />
        </mxCell>
        <mxCell id="MPB-fDKl9nhUMYI1UaOo-57" value="" style="shape=partialRectangle;connectable=0;fillColor=none;top=0;left=0;bottom=0;right=0;editable=1;overflow=hidden;whiteSpace=wrap;html=1;" vertex="1" parent="MPB-fDKl9nhUMYI1UaOo-56">
          <mxGeometry width="30" height="30" as="geometry">
            <mxRectangle width="30" height="30" as="alternateBounds" />
          </mxGeometry>
        </mxCell>
        <mxCell id="MPB-fDKl9nhUMYI1UaOo-58" value="prioridad" style="shape=partialRectangle;connectable=0;fillColor=none;top=0;left=0;bottom=0;right=0;align=left;spacingLeft=6;overflow=hidden;whiteSpace=wrap;html=1;" vertex="1" parent="MPB-fDKl9nhUMYI1UaOo-56">
          <mxGeometry x="30" width="130" height="30" as="geometry">
            <mxRectangle width="130" height="30" as="alternateBounds" />
          </mxGeometry>
        </mxCell>
        <mxCell id="MPB-fDKl9nhUMYI1UaOo-40" value="" style="shape=tableRow;horizontal=0;startSize=0;swimlaneHead=0;swimlaneBody=0;fillColor=none;collapsible=0;dropTarget=0;points=[[0,0.5],[1,0.5]];portConstraint=eastwest;top=0;left=0;right=0;bottom=0;" vertex="1" parent="MPB-fDKl9nhUMYI1UaOo-27">
          <mxGeometry y="180" width="160" height="30" as="geometry" />
        </mxCell>
        <mxCell id="MPB-fDKl9nhUMYI1UaOo-41" value="" style="shape=partialRectangle;connectable=0;fillColor=none;top=0;left=0;bottom=0;right=0;editable=1;overflow=hidden;whiteSpace=wrap;html=1;" vertex="1" parent="MPB-fDKl9nhUMYI1UaOo-40">
          <mxGeometry width="30" height="30" as="geometry">
            <mxRectangle width="30" height="30" as="alternateBounds" />
          </mxGeometry>
        </mxCell>
        <mxCell id="MPB-fDKl9nhUMYI1UaOo-42" value="categoria" style="shape=partialRectangle;connectable=0;fillColor=none;top=0;left=0;bottom=0;right=0;align=left;spacingLeft=6;overflow=hidden;whiteSpace=wrap;html=1;" vertex="1" parent="MPB-fDKl9nhUMYI1UaOo-40">
          <mxGeometry x="30" width="130" height="30" as="geometry">
            <mxRectangle width="130" height="30" as="alternateBounds" />
          </mxGeometry>
        </mxCell>
        <mxCell id="JSFlRtAhS6TofPz4Yzor-1" value="" style="edgeStyle=entityRelationEdgeStyle;fontSize=12;html=1;endArrow=ERmandOne;startArrow=ERmandOne;rounded=0;" edge="1" parent="1" source="iw_2Tvpvx7eZhHEt1MOi-3" target="iw_2Tvpvx7eZhHEt1MOi-16">
          <mxGeometry width="100" height="100" relative="1" as="geometry">
            <mxPoint x="1330" y="70" as="sourcePoint" />
            <mxPoint x="1460" y="27" as="targetPoint" />
          </mxGeometry>
        </mxCell>
        <mxCell id="MPB-fDKl9nhUMYI1UaOo-72" value="proyecto_usuario" style="shape=table;startSize=30;container=1;collapsible=1;childLayout=tableLayout;fixedRows=1;rowLines=0;fontStyle=1;align=center;resizeLast=1;html=1;" vertex="1" parent="1">
          <mxGeometry x="1220" y="200" width="160" height="90" as="geometry" />
        </mxCell>
        <mxCell id="MPB-fDKl9nhUMYI1UaOo-73" value="" style="shape=tableRow;horizontal=0;startSize=0;swimlaneHead=0;swimlaneBody=0;fillColor=none;collapsible=0;dropTarget=0;points=[[0,0.5],[1,0.5]];portConstraint=eastwest;top=0;left=0;right=0;bottom=1;" vertex="1" parent="MPB-fDKl9nhUMYI1UaOo-72">
          <mxGeometry y="30" width="160" height="30" as="geometry" />
        </mxCell>
        <mxCell id="MPB-fDKl9nhUMYI1UaOo-74" value="FK" style="shape=partialRectangle;connectable=0;fillColor=none;top=0;left=0;bottom=0;right=0;fontStyle=1;overflow=hidden;whiteSpace=wrap;html=1;" vertex="1" parent="MPB-fDKl9nhUMYI1UaOo-73">
          <mxGeometry width="30" height="30" as="geometry">
            <mxRectangle width="30" height="30" as="alternateBounds" />
          </mxGeometry>
        </mxCell>
        <mxCell id="MPB-fDKl9nhUMYI1UaOo-75" value="cedula_usuario" style="shape=partialRectangle;connectable=0;fillColor=none;top=0;left=0;bottom=0;right=0;align=left;spacingLeft=6;fontStyle=5;overflow=hidden;whiteSpace=wrap;html=1;" vertex="1" parent="MPB-fDKl9nhUMYI1UaOo-73">
          <mxGeometry x="30" width="130" height="30" as="geometry">
            <mxRectangle width="130" height="30" as="alternateBounds" />
          </mxGeometry>
        </mxCell>
        <mxCell id="MPB-fDKl9nhUMYI1UaOo-86" value="" style="shape=tableRow;horizontal=0;startSize=0;swimlaneHead=0;swimlaneBody=0;fillColor=none;collapsible=0;dropTarget=0;points=[[0,0.5],[1,0.5]];portConstraint=eastwest;top=0;left=0;right=0;bottom=1;" vertex="1" parent="MPB-fDKl9nhUMYI1UaOo-72">
          <mxGeometry y="60" width="160" height="30" as="geometry" />
        </mxCell>
        <mxCell id="MPB-fDKl9nhUMYI1UaOo-87" value="FK" style="shape=partialRectangle;connectable=0;fillColor=none;top=0;left=0;bottom=0;right=0;fontStyle=1;overflow=hidden;whiteSpace=wrap;html=1;" vertex="1" parent="MPB-fDKl9nhUMYI1UaOo-86">
          <mxGeometry width="30" height="30" as="geometry">
            <mxRectangle width="30" height="30" as="alternateBounds" />
          </mxGeometry>
        </mxCell>
        <mxCell id="MPB-fDKl9nhUMYI1UaOo-88" value="id_proyecto" style="shape=partialRectangle;connectable=0;fillColor=none;top=0;left=0;bottom=0;right=0;align=left;spacingLeft=6;fontStyle=5;overflow=hidden;whiteSpace=wrap;html=1;" vertex="1" parent="MPB-fDKl9nhUMYI1UaOo-86">
          <mxGeometry x="30" width="130" height="30" as="geometry">
            <mxRectangle width="130" height="30" as="alternateBounds" />
          </mxGeometry>
        </mxCell>
        <mxCell id="MPB-fDKl9nhUMYI1UaOo-101" value="" style="edgeStyle=entityRelationEdgeStyle;fontSize=12;html=1;endArrow=ERmany;rounded=0;" edge="1" parent="1" source="iw_2Tvpvx7eZhHEt1MOi-3" target="MPB-fDKl9nhUMYI1UaOo-73">
          <mxGeometry width="100" height="100" relative="1" as="geometry">
            <mxPoint x="1360" y="280" as="sourcePoint" />
            <mxPoint x="1447" y="339" as="targetPoint" />
            <Array as="points">
              <mxPoint x="1100" y="120" />
              <mxPoint x="1100" y="120" />
            </Array>
          </mxGeometry>
        </mxCell>
        <mxCell id="MPB-fDKl9nhUMYI1UaOo-102" value="" style="edgeStyle=entityRelationEdgeStyle;fontSize=12;html=1;endArrow=ERmany;rounded=0;" edge="1" parent="1" source="iw_2Tvpvx7eZhHEt1MOi-49" target="MPB-fDKl9nhUMYI1UaOo-47">
          <mxGeometry width="100" height="100" relative="1" as="geometry">
            <mxPoint x="1350" y="290" as="sourcePoint" />
            <mxPoint x="1437" y="349" as="targetPoint" />
          </mxGeometry>
        </mxCell>
        <mxCell id="MPB-fDKl9nhUMYI1UaOo-103" value="HistorialRiesgo" style="shape=table;startSize=30;container=1;collapsible=1;childLayout=tableLayout;fixedRows=1;rowLines=0;fontStyle=1;align=center;resizeLast=1;html=1;" vertex="1" parent="1">
          <mxGeometry x="1500" y="520" width="160" height="180" as="geometry" />
        </mxCell>
        <mxCell id="MPB-fDKl9nhUMYI1UaOo-104" value="" style="shape=tableRow;horizontal=0;startSize=0;swimlaneHead=0;swimlaneBody=0;fillColor=none;collapsible=0;dropTarget=0;points=[[0,0.5],[1,0.5]];portConstraint=eastwest;top=0;left=0;right=0;bottom=1;" vertex="1" parent="MPB-fDKl9nhUMYI1UaOo-103">
          <mxGeometry y="30" width="160" height="30" as="geometry" />
        </mxCell>
        <mxCell id="MPB-fDKl9nhUMYI1UaOo-105" value="PK" style="shape=partialRectangle;connectable=0;fillColor=none;top=0;left=0;bottom=0;right=0;fontStyle=1;overflow=hidden;whiteSpace=wrap;html=1;" vertex="1" parent="MPB-fDKl9nhUMYI1UaOo-104">
          <mxGeometry width="30" height="30" as="geometry">
            <mxRectangle width="30" height="30" as="alternateBounds" />
          </mxGeometry>
        </mxCell>
        <mxCell id="MPB-fDKl9nhUMYI1UaOo-106" value="id_historial" style="shape=partialRectangle;connectable=0;fillColor=none;top=0;left=0;bottom=0;right=0;align=left;spacingLeft=6;fontStyle=5;overflow=hidden;whiteSpace=wrap;html=1;" vertex="1" parent="MPB-fDKl9nhUMYI1UaOo-104">
          <mxGeometry x="30" width="130" height="30" as="geometry">
            <mxRectangle width="130" height="30" as="alternateBounds" />
          </mxGeometry>
        </mxCell>
        <mxCell id="MPB-fDKl9nhUMYI1UaOo-107" value="" style="shape=tableRow;horizontal=0;startSize=0;swimlaneHead=0;swimlaneBody=0;fillColor=none;collapsible=0;dropTarget=0;points=[[0,0.5],[1,0.5]];portConstraint=eastwest;top=0;left=0;right=0;bottom=1;" vertex="1" parent="MPB-fDKl9nhUMYI1UaOo-103">
          <mxGeometry y="60" width="160" height="30" as="geometry" />
        </mxCell>
        <mxCell id="MPB-fDKl9nhUMYI1UaOo-108" value="FK" style="shape=partialRectangle;connectable=0;fillColor=none;top=0;left=0;bottom=0;right=0;fontStyle=1;overflow=hidden;whiteSpace=wrap;html=1;" vertex="1" parent="MPB-fDKl9nhUMYI1UaOo-107">
          <mxGeometry width="30" height="30" as="geometry">
            <mxRectangle width="30" height="30" as="alternateBounds" />
          </mxGeometry>
        </mxCell>
        <mxCell id="MPB-fDKl9nhUMYI1UaOo-109" value="id_riesgo" style="shape=partialRectangle;connectable=0;fillColor=none;top=0;left=0;bottom=0;right=0;align=left;spacingLeft=6;fontStyle=5;overflow=hidden;whiteSpace=wrap;html=1;" vertex="1" parent="MPB-fDKl9nhUMYI1UaOo-107">
          <mxGeometry x="30" width="130" height="30" as="geometry">
            <mxRectangle width="130" height="30" as="alternateBounds" />
          </mxGeometry>
        </mxCell>
        <mxCell id="MPB-fDKl9nhUMYI1UaOo-110" value="" style="shape=tableRow;horizontal=0;startSize=0;swimlaneHead=0;swimlaneBody=0;fillColor=none;collapsible=0;dropTarget=0;points=[[0,0.5],[1,0.5]];portConstraint=eastwest;top=0;left=0;right=0;bottom=0;" vertex="1" parent="MPB-fDKl9nhUMYI1UaOo-103">
          <mxGeometry y="90" width="160" height="30" as="geometry" />
        </mxCell>
        <mxCell id="MPB-fDKl9nhUMYI1UaOo-111" value="" style="shape=partialRectangle;connectable=0;fillColor=none;top=0;left=0;bottom=0;right=0;editable=1;overflow=hidden;whiteSpace=wrap;html=1;" vertex="1" parent="MPB-fDKl9nhUMYI1UaOo-110">
          <mxGeometry width="30" height="30" as="geometry">
            <mxRectangle width="30" height="30" as="alternateBounds" />
          </mxGeometry>
        </mxCell>
        <mxCell id="MPB-fDKl9nhUMYI1UaOo-112" value="descripcion" style="shape=partialRectangle;connectable=0;fillColor=none;top=0;left=0;bottom=0;right=0;align=left;spacingLeft=6;overflow=hidden;whiteSpace=wrap;html=1;" vertex="1" parent="MPB-fDKl9nhUMYI1UaOo-110">
          <mxGeometry x="30" width="130" height="30" as="geometry">
            <mxRectangle width="130" height="30" as="alternateBounds" />
          </mxGeometry>
        </mxCell>
        <mxCell id="MPB-fDKl9nhUMYI1UaOo-113" value="" style="shape=tableRow;horizontal=0;startSize=0;swimlaneHead=0;swimlaneBody=0;fillColor=none;collapsible=0;dropTarget=0;points=[[0,0.5],[1,0.5]];portConstraint=eastwest;top=0;left=0;right=0;bottom=0;" vertex="1" parent="MPB-fDKl9nhUMYI1UaOo-103">
          <mxGeometry y="120" width="160" height="30" as="geometry" />
        </mxCell>
        <mxCell id="MPB-fDKl9nhUMYI1UaOo-114" value="" style="shape=partialRectangle;connectable=0;fillColor=none;top=0;left=0;bottom=0;right=0;editable=1;overflow=hidden;whiteSpace=wrap;html=1;" vertex="1" parent="MPB-fDKl9nhUMYI1UaOo-113">
          <mxGeometry width="30" height="30" as="geometry">
            <mxRectangle width="30" height="30" as="alternateBounds" />
          </mxGeometry>
        </mxCell>
        <mxCell id="MPB-fDKl9nhUMYI1UaOo-115" value="estado" style="shape=partialRectangle;connectable=0;fillColor=none;top=0;left=0;bottom=0;right=0;align=left;spacingLeft=6;overflow=hidden;whiteSpace=wrap;html=1;" vertex="1" parent="MPB-fDKl9nhUMYI1UaOo-113">
          <mxGeometry x="30" width="130" height="30" as="geometry">
            <mxRectangle width="130" height="30" as="alternateBounds" />
          </mxGeometry>
        </mxCell>
        <mxCell id="MPB-fDKl9nhUMYI1UaOo-116" value="" style="shape=tableRow;horizontal=0;startSize=0;swimlaneHead=0;swimlaneBody=0;fillColor=none;collapsible=0;dropTarget=0;points=[[0,0.5],[1,0.5]];portConstraint=eastwest;top=0;left=0;right=0;bottom=0;" vertex="1" parent="MPB-fDKl9nhUMYI1UaOo-103">
          <mxGeometry y="150" width="160" height="30" as="geometry" />
        </mxCell>
        <mxCell id="MPB-fDKl9nhUMYI1UaOo-117" value="" style="shape=partialRectangle;connectable=0;fillColor=none;top=0;left=0;bottom=0;right=0;editable=1;overflow=hidden;whiteSpace=wrap;html=1;" vertex="1" parent="MPB-fDKl9nhUMYI1UaOo-116">
          <mxGeometry width="30" height="30" as="geometry">
            <mxRectangle width="30" height="30" as="alternateBounds" />
          </mxGeometry>
        </mxCell>
        <mxCell id="MPB-fDKl9nhUMYI1UaOo-118" value="fecha" style="shape=partialRectangle;connectable=0;fillColor=none;top=0;left=0;bottom=0;right=0;align=left;spacingLeft=6;overflow=hidden;whiteSpace=wrap;html=1;" vertex="1" parent="MPB-fDKl9nhUMYI1UaOo-116">
          <mxGeometry x="30" width="130" height="30" as="geometry">
            <mxRectangle width="130" height="30" as="alternateBounds" />
          </mxGeometry>
        </mxCell>
        <mxCell id="MPB-fDKl9nhUMYI1UaOo-123" value="PlanRiesgo" style="shape=table;startSize=30;container=1;collapsible=1;childLayout=tableLayout;fixedRows=1;rowLines=0;fontStyle=1;align=center;resizeLast=1;html=1;" vertex="1" parent="1">
          <mxGeometry x="860" y="440" width="160" height="210" as="geometry" />
        </mxCell>
        <mxCell id="MPB-fDKl9nhUMYI1UaOo-124" value="" style="shape=tableRow;horizontal=0;startSize=0;swimlaneHead=0;swimlaneBody=0;fillColor=none;collapsible=0;dropTarget=0;points=[[0,0.5],[1,0.5]];portConstraint=eastwest;top=0;left=0;right=0;bottom=1;" vertex="1" parent="MPB-fDKl9nhUMYI1UaOo-123">
          <mxGeometry y="30" width="160" height="30" as="geometry" />
        </mxCell>
        <mxCell id="MPB-fDKl9nhUMYI1UaOo-125" value="PK" style="shape=partialRectangle;connectable=0;fillColor=none;top=0;left=0;bottom=0;right=0;fontStyle=1;overflow=hidden;whiteSpace=wrap;html=1;" vertex="1" parent="MPB-fDKl9nhUMYI1UaOo-124">
          <mxGeometry width="30" height="30" as="geometry">
            <mxRectangle width="30" height="30" as="alternateBounds" />
          </mxGeometry>
        </mxCell>
        <mxCell id="MPB-fDKl9nhUMYI1UaOo-126" value="id_plan" style="shape=partialRectangle;connectable=0;fillColor=none;top=0;left=0;bottom=0;right=0;align=left;spacingLeft=6;fontStyle=5;overflow=hidden;whiteSpace=wrap;html=1;" vertex="1" parent="MPB-fDKl9nhUMYI1UaOo-124">
          <mxGeometry x="30" width="130" height="30" as="geometry">
            <mxRectangle width="130" height="30" as="alternateBounds" />
          </mxGeometry>
        </mxCell>
        <mxCell id="MPB-fDKl9nhUMYI1UaOo-127" value="" style="shape=tableRow;horizontal=0;startSize=0;swimlaneHead=0;swimlaneBody=0;fillColor=none;collapsible=0;dropTarget=0;points=[[0,0.5],[1,0.5]];portConstraint=eastwest;top=0;left=0;right=0;bottom=1;" vertex="1" parent="MPB-fDKl9nhUMYI1UaOo-123">
          <mxGeometry y="60" width="160" height="30" as="geometry" />
        </mxCell>
        <mxCell id="MPB-fDKl9nhUMYI1UaOo-128" value="FK" style="shape=partialRectangle;connectable=0;fillColor=none;top=0;left=0;bottom=0;right=0;fontStyle=1;overflow=hidden;whiteSpace=wrap;html=1;" vertex="1" parent="MPB-fDKl9nhUMYI1UaOo-127">
          <mxGeometry width="30" height="30" as="geometry">
            <mxRectangle width="30" height="30" as="alternateBounds" />
          </mxGeometry>
        </mxCell>
        <mxCell id="MPB-fDKl9nhUMYI1UaOo-129" value="id_riesgo" style="shape=partialRectangle;connectable=0;fillColor=none;top=0;left=0;bottom=0;right=0;align=left;spacingLeft=6;fontStyle=5;overflow=hidden;whiteSpace=wrap;html=1;" vertex="1" parent="MPB-fDKl9nhUMYI1UaOo-127">
          <mxGeometry x="30" width="130" height="30" as="geometry">
            <mxRectangle width="130" height="30" as="alternateBounds" />
          </mxGeometry>
        </mxCell>
        <mxCell id="MPB-fDKl9nhUMYI1UaOo-130" value="" style="shape=tableRow;horizontal=0;startSize=0;swimlaneHead=0;swimlaneBody=0;fillColor=none;collapsible=0;dropTarget=0;points=[[0,0.5],[1,0.5]];portConstraint=eastwest;top=0;left=0;right=0;bottom=0;" vertex="1" parent="MPB-fDKl9nhUMYI1UaOo-123">
          <mxGeometry y="90" width="160" height="30" as="geometry" />
        </mxCell>
        <mxCell id="MPB-fDKl9nhUMYI1UaOo-131" value="" style="shape=partialRectangle;connectable=0;fillColor=none;top=0;left=0;bottom=0;right=0;editable=1;overflow=hidden;whiteSpace=wrap;html=1;" vertex="1" parent="MPB-fDKl9nhUMYI1UaOo-130">
          <mxGeometry width="30" height="30" as="geometry">
            <mxRectangle width="30" height="30" as="alternateBounds" />
          </mxGeometry>
        </mxCell>
        <mxCell id="MPB-fDKl9nhUMYI1UaOo-132" value="descripcion" style="shape=partialRectangle;connectable=0;fillColor=none;top=0;left=0;bottom=0;right=0;align=left;spacingLeft=6;overflow=hidden;whiteSpace=wrap;html=1;" vertex="1" parent="MPB-fDKl9nhUMYI1UaOo-130">
          <mxGeometry x="30" width="130" height="30" as="geometry">
            <mxRectangle width="130" height="30" as="alternateBounds" />
          </mxGeometry>
        </mxCell>
        <mxCell id="MPB-fDKl9nhUMYI1UaOo-133" value="" style="shape=tableRow;horizontal=0;startSize=0;swimlaneHead=0;swimlaneBody=0;fillColor=none;collapsible=0;dropTarget=0;points=[[0,0.5],[1,0.5]];portConstraint=eastwest;top=0;left=0;right=0;bottom=0;" vertex="1" parent="MPB-fDKl9nhUMYI1UaOo-123">
          <mxGeometry y="120" width="160" height="30" as="geometry" />
        </mxCell>
        <mxCell id="MPB-fDKl9nhUMYI1UaOo-134" value="" style="shape=partialRectangle;connectable=0;fillColor=none;top=0;left=0;bottom=0;right=0;editable=1;overflow=hidden;whiteSpace=wrap;html=1;" vertex="1" parent="MPB-fDKl9nhUMYI1UaOo-133">
          <mxGeometry width="30" height="30" as="geometry">
            <mxRectangle width="30" height="30" as="alternateBounds" />
          </mxGeometry>
        </mxCell>
        <mxCell id="MPB-fDKl9nhUMYI1UaOo-135" value="estrategia" style="shape=partialRectangle;connectable=0;fillColor=none;top=0;left=0;bottom=0;right=0;align=left;spacingLeft=6;overflow=hidden;whiteSpace=wrap;html=1;" vertex="1" parent="MPB-fDKl9nhUMYI1UaOo-133">
          <mxGeometry x="30" width="130" height="30" as="geometry">
            <mxRectangle width="130" height="30" as="alternateBounds" />
          </mxGeometry>
        </mxCell>
        <mxCell id="MPB-fDKl9nhUMYI1UaOo-136" value="" style="shape=tableRow;horizontal=0;startSize=0;swimlaneHead=0;swimlaneBody=0;fillColor=none;collapsible=0;dropTarget=0;points=[[0,0.5],[1,0.5]];portConstraint=eastwest;top=0;left=0;right=0;bottom=0;" vertex="1" parent="MPB-fDKl9nhUMYI1UaOo-123">
          <mxGeometry y="150" width="160" height="30" as="geometry" />
        </mxCell>
        <mxCell id="MPB-fDKl9nhUMYI1UaOo-137" value="" style="shape=partialRectangle;connectable=0;fillColor=none;top=0;left=0;bottom=0;right=0;editable=1;overflow=hidden;whiteSpace=wrap;html=1;" vertex="1" parent="MPB-fDKl9nhUMYI1UaOo-136">
          <mxGeometry width="30" height="30" as="geometry">
            <mxRectangle width="30" height="30" as="alternateBounds" />
          </mxGeometry>
        </mxCell>
        <mxCell id="MPB-fDKl9nhUMYI1UaOo-138" value="fecha_implementacion" style="shape=partialRectangle;connectable=0;fillColor=none;top=0;left=0;bottom=0;right=0;align=left;spacingLeft=6;overflow=hidden;whiteSpace=wrap;html=1;" vertex="1" parent="MPB-fDKl9nhUMYI1UaOo-136">
          <mxGeometry x="30" width="130" height="30" as="geometry">
            <mxRectangle width="130" height="30" as="alternateBounds" />
          </mxGeometry>
        </mxCell>
        <mxCell id="MPB-fDKl9nhUMYI1UaOo-139" value="" style="shape=tableRow;horizontal=0;startSize=0;swimlaneHead=0;swimlaneBody=0;fillColor=none;collapsible=0;dropTarget=0;points=[[0,0.5],[1,0.5]];portConstraint=eastwest;top=0;left=0;right=0;bottom=0;" vertex="1" parent="MPB-fDKl9nhUMYI1UaOo-123">
          <mxGeometry y="180" width="160" height="30" as="geometry" />
        </mxCell>
        <mxCell id="MPB-fDKl9nhUMYI1UaOo-140" value="" style="shape=partialRectangle;connectable=0;fillColor=none;top=0;left=0;bottom=0;right=0;editable=1;overflow=hidden;whiteSpace=wrap;html=1;" vertex="1" parent="MPB-fDKl9nhUMYI1UaOo-139">
          <mxGeometry width="30" height="30" as="geometry">
            <mxRectangle width="30" height="30" as="alternateBounds" />
          </mxGeometry>
        </mxCell>
        <mxCell id="MPB-fDKl9nhUMYI1UaOo-141" value="eficiencia" style="shape=partialRectangle;connectable=0;fillColor=none;top=0;left=0;bottom=0;right=0;align=left;spacingLeft=6;overflow=hidden;whiteSpace=wrap;html=1;" vertex="1" parent="MPB-fDKl9nhUMYI1UaOo-139">
          <mxGeometry x="30" width="130" height="30" as="geometry">
            <mxRectangle width="130" height="30" as="alternateBounds" />
          </mxGeometry>
        </mxCell>
        <mxCell id="MPB-fDKl9nhUMYI1UaOo-143" value="" style="edgeStyle=entityRelationEdgeStyle;fontSize=12;html=1;endArrow=ERmandOne;startArrow=ERmandOne;rounded=0;" edge="1" parent="1" source="MPB-fDKl9nhUMYI1UaOo-44" target="MPB-fDKl9nhUMYI1UaOo-127">
          <mxGeometry width="100" height="100" relative="1" as="geometry">
            <mxPoint x="1290" y="570" as="sourcePoint" />
            <mxPoint x="1390" y="470" as="targetPoint" />
          </mxGeometry>
        </mxCell>
        <mxCell id="MPB-fDKl9nhUMYI1UaOo-144" value="" style="edgeStyle=entityRelationEdgeStyle;fontSize=12;html=1;endArrow=ERmandOne;startArrow=ERmandOne;rounded=0;" edge="1" parent="1" source="MPB-fDKl9nhUMYI1UaOo-44" target="MPB-fDKl9nhUMYI1UaOo-107">
          <mxGeometry width="100" height="100" relative="1" as="geometry">
            <mxPoint x="1168" y="540" as="sourcePoint" />
            <mxPoint x="1020" y="610" as="targetPoint" />
          </mxGeometry>
        </mxCell>
        <mxCell id="MPB-fDKl9nhUMYI1UaOo-145" value="" style="edgeStyle=entityRelationEdgeStyle;fontSize=12;html=1;endArrow=ERoneToMany;rounded=0;" edge="1" parent="1" source="iw_2Tvpvx7eZhHEt1MOi-49" target="MPB-fDKl9nhUMYI1UaOo-2">
          <mxGeometry width="100" height="100" relative="1" as="geometry">
            <mxPoint x="1380" y="450" as="sourcePoint" />
            <mxPoint x="1480" y="350" as="targetPoint" />
          </mxGeometry>
        </mxCell>
        <mxCell id="MPB-fDKl9nhUMYI1UaOo-147" value="" style="edgeStyle=entityRelationEdgeStyle;fontSize=12;html=1;endArrow=ERmany;rounded=0;" edge="1" parent="1" source="iw_2Tvpvx7eZhHEt1MOi-49" target="MPB-fDKl9nhUMYI1UaOo-86">
          <mxGeometry width="100" height="100" relative="1" as="geometry">
            <mxPoint x="1830" y="200" as="sourcePoint" />
            <mxPoint x="1710" y="360" as="targetPoint" />
            <Array as="points">
              <mxPoint x="1430" y="235" />
              <mxPoint x="1430" y="235" />
            </Array>
          </mxGeometry>
        </mxCell>
        <mxCell id="MPB-fDKl9nhUMYI1UaOo-148" value="id" style="ellipse;whiteSpace=wrap;html=1;fontSize=10;" vertex="1" parent="1">
          <mxGeometry x="95" y="405" width="50" height="30" as="geometry" />
        </mxCell>
        <mxCell id="MPB-fDKl9nhUMYI1UaOo-149" value="descripcion" style="ellipse;whiteSpace=wrap;html=1;fontSize=10;" vertex="1" parent="1">
          <mxGeometry x="30" y="410" width="50" height="30" as="geometry" />
        </mxCell>
        <mxCell id="MPB-fDKl9nhUMYI1UaOo-150" value="estrategia" style="ellipse;whiteSpace=wrap;html=1;fontSize=10;" vertex="1" parent="1">
          <mxGeometry x="10" y="450" width="50" height="30" as="geometry" />
        </mxCell>
        <mxCell id="MPB-fDKl9nhUMYI1UaOo-151" value="fecha&lt;div&gt;implementacion&lt;/div&gt;" style="ellipse;whiteSpace=wrap;html=1;fontSize=10;" vertex="1" parent="1">
          <mxGeometry x="30" y="505" width="50" height="30" as="geometry" />
        </mxCell>
        <mxCell id="MPB-fDKl9nhUMYI1UaOo-152" value="eficiencia" style="ellipse;whiteSpace=wrap;html=1;fontSize=10;" vertex="1" parent="1">
          <mxGeometry x="95" y="520" width="50" height="30" as="geometry" />
        </mxCell>
      </root>
    </mxGraphModel>
  </diagram>
</mxfile>
